<svg width="1764" height="1053" viewBox="0 0 1764 1053" fill="none" xmlns="http://www.w3.org/2000/svg">
<g clip-path="url(#clip0_348_12569)">
<path d="M1164.01 0H596.174C487.436 0.00689759 383.113 43.0144 305.963 119.641C228.812 196.267 185.094 300.294 184.346 409.029C182.732 637.152 372.93 823.798 601.053 823.798H848.623C859.702 823.798 870.49 827.344 879.408 833.917L1156.87 1038.43C1167.45 1046.24 1179.99 1050.96 1193.09 1052.07C1206.2 1053.17 1219.35 1050.62 1231.09 1044.69C1242.83 1038.76 1252.69 1029.69 1259.58 1018.49C1266.47 1007.28 1270.11 994.39 1270.1 981.239V828.822C1270.12 823.789 1271.77 818.898 1274.8 814.877C1277.82 810.856 1282.06 807.919 1286.89 806.504C1371.33 781.215 1445.43 729.522 1498.32 659.017C1551.2 588.511 1580.1 502.905 1580.75 414.77C1582.29 186.646 1392.13 0 1164.01 0ZM1421.59 668.547C1373.07 717.179 1311.72 751.003 1244.7 766.068C1239.1 767.151 1234.05 770.149 1230.41 774.548C1226.78 778.947 1224.79 784.474 1224.79 790.179V972.448C1224.78 977.581 1223.35 982.612 1220.65 986.981C1217.96 991.35 1214.11 994.887 1209.52 997.199C1204.94 999.511 1199.81 1000.51 1194.69 1000.08C1189.58 999.648 1184.68 997.809 1180.55 994.765L948.512 823.619L895.518 784.51C887.007 778.233 876.708 774.85 866.133 774.858H604.605C403.464 774.858 235.798 610.278 237.233 409.136C237.943 313.309 276.507 221.648 344.517 154.134C412.528 86.6214 504.469 48.7315 600.3 48.7246H1164.97C1236.78 48.7276 1306.97 70.0228 1366.68 109.917C1426.38 149.812 1472.91 206.514 1500.39 272.854C1527.87 339.194 1535.06 412.192 1521.05 482.618C1507.04 553.044 1472.47 617.735 1421.69 668.511L1421.59 668.547Z" fill="#BA2228"/>
<path d="M112.949 411.719C112.813 494.061 137.577 574.519 183.991 642.533C131.69 630.441 85.0276 600.986 51.6141 558.972C18.2007 516.957 0.00715391 464.862 3.77223e-08 411.181V409.566C-0.000956472 355.879 18.1888 303.775 51.6029 261.753C85.017 219.731 131.684 190.271 183.991 178.178C137.576 246.205 112.812 326.675 112.949 409.028V411.719Z" fill="#BA2228"/>
<path d="M1651 411.719C1651.14 494.061 1626.38 574.519 1579.96 642.533C1632.26 630.441 1678.93 600.986 1712.34 558.972C1745.75 516.957 1763.95 464.862 1763.95 411.181V409.566C1763.96 355.879 1745.76 303.775 1712.35 261.753C1678.94 219.731 1632.27 190.271 1579.96 178.178C1626.38 246.205 1651.14 326.675 1651 409.028V411.719Z" fill="#BA2228"/>
<path d="M649.685 992.256C646.153 992.113 642.685 991.275 639.477 989.791C636.269 988.307 633.385 986.206 630.989 983.607C628.593 981.008 626.733 977.962 625.515 974.645C624.296 971.327 623.744 967.801 623.888 964.27C624.031 960.738 624.868 957.269 626.352 954.061C627.836 950.853 629.938 947.969 632.537 945.574C635.136 943.178 638.181 941.318 641.499 940.099C644.817 938.881 648.342 938.328 651.874 938.472C659.003 938.771 665.723 941.885 670.559 947.131C675.395 952.378 677.953 959.328 677.672 966.458C677.385 973.398 674.43 979.959 669.422 984.772C664.415 989.585 657.743 992.279 650.798 992.292H649.685V992.256ZM576.67 987.233C569.563 986.534 563.024 983.043 558.49 977.526C553.956 972.01 551.797 964.919 552.487 957.811C553.195 950.711 556.69 944.181 562.205 939.655C567.721 935.128 574.806 932.974 581.908 933.664C585.428 934.006 588.845 935.038 591.965 936.702C595.084 938.367 597.845 940.63 600.088 943.363C602.331 946.097 604.013 949.246 605.037 952.63C606.061 956.014 606.407 959.567 606.056 963.086C605.406 969.729 602.311 975.893 597.371 980.382C592.431 984.871 586 987.363 579.325 987.376C578.428 987.412 577.567 987.233 576.67 987.233ZM503.798 977.617C500.311 977.034 496.973 975.77 493.974 973.896C490.976 972.022 488.376 969.576 486.323 966.697C484.271 963.818 482.805 960.563 482.011 957.117C481.217 953.672 481.111 950.104 481.696 946.617C482.279 943.129 483.543 939.791 485.417 936.793C487.291 933.794 489.737 931.194 492.616 929.142C495.495 927.089 498.75 925.624 502.196 924.83C505.641 924.036 509.21 923.929 512.697 924.515C519.733 925.701 526.01 929.632 530.149 935.446C534.287 941.259 535.946 948.478 534.762 955.515C533.718 961.786 530.485 967.484 525.637 971.596C520.789 975.708 514.641 977.969 508.283 977.976C506.782 977.991 505.282 977.883 503.798 977.653V977.617ZM431.429 962.404C424.567 960.612 418.688 956.186 415.067 950.087C411.447 943.988 410.377 936.708 412.09 929.825C413.872 922.918 418.323 917.001 424.466 913.375C430.608 909.749 437.94 908.709 444.848 910.486C448.271 911.364 451.488 912.909 454.314 915.03C457.14 917.152 459.521 919.81 461.321 922.852C463.12 925.894 464.302 929.26 464.8 932.759C465.298 936.258 465.102 939.821 464.223 943.244C462.741 949.026 459.376 954.15 454.66 957.807C449.943 961.465 444.143 963.448 438.174 963.444C435.893 963.392 433.627 963.055 431.429 962.44V962.404ZM360.351 940.159C353.666 937.66 348.248 932.609 345.287 926.116C342.327 919.623 342.067 912.219 344.564 905.535C347.07 898.847 352.128 893.428 358.627 890.468C365.126 887.508 372.534 887.249 379.224 889.748C382.535 890.988 385.569 892.869 388.153 895.282C390.736 897.696 392.819 900.595 394.282 903.813C395.744 907.032 396.559 910.508 396.677 914.041C396.796 917.575 396.218 921.097 394.975 924.407C393.063 929.529 389.634 933.945 385.147 937.067C380.659 940.189 375.326 941.868 369.859 941.881C366.613 941.911 363.389 941.339 360.351 940.194V940.159ZM291.749 909.338C288.633 907.666 285.878 905.397 283.64 902.66C281.402 899.923 279.725 896.772 278.705 893.386C277.686 890.001 277.343 886.448 277.698 882.93C278.052 879.412 279.096 875.998 280.77 872.884C282.438 869.77 284.704 867.015 287.438 864.777C290.172 862.54 293.32 860.863 296.702 859.843C300.085 858.824 303.635 858.481 307.15 858.834C310.665 859.188 314.077 860.232 317.188 861.905C323.477 865.275 328.17 871.004 330.235 877.833C332.301 884.662 331.57 892.032 328.203 898.323C325.912 902.639 322.493 906.254 318.31 908.782C314.127 911.309 309.338 912.654 304.451 912.675C300.01 912.635 295.647 911.501 291.749 909.374V909.338ZM227.847 868.112C222.203 863.737 218.526 857.301 217.625 850.216C216.723 843.132 218.671 835.98 223.039 830.331C227.413 824.694 233.846 821.025 240.924 820.13C248.002 819.235 255.146 821.188 260.785 825.559C263.582 827.719 265.926 830.409 267.683 833.477C269.439 836.544 270.573 839.928 271.019 843.434C271.466 846.94 271.217 850.5 270.286 853.91C269.354 857.319 267.76 860.512 265.593 863.304C263.079 866.562 259.849 869.198 256.154 871.008C252.458 872.819 248.395 873.755 244.28 873.745C238.334 873.749 232.555 871.78 227.847 868.148V868.112ZM171.911 815.261C169.604 812.583 167.847 809.476 166.74 806.119C165.634 802.761 165.2 799.219 165.463 795.694C165.727 792.168 166.682 788.729 168.274 785.574C169.867 782.418 172.066 779.606 174.745 777.3C177.424 774.993 180.53 773.236 183.888 772.13C187.245 771.023 190.788 770.59 194.313 770.853C197.838 771.116 201.277 772.071 204.433 773.664C207.589 775.256 210.4 777.456 212.706 780.135C215.013 782.813 216.77 785.92 217.877 789.277C218.983 792.635 219.417 796.177 219.154 799.703C218.891 803.228 217.935 806.667 216.343 809.823C214.75 812.979 212.551 815.79 209.872 818.096C204.997 822.308 198.769 824.626 192.326 824.626C188.453 824.63 184.624 823.798 181.101 822.188C177.578 820.579 174.443 818.228 171.911 815.297V815.261ZM128.138 751.144C124.824 744.834 124.149 737.466 126.261 730.659C128.373 723.852 133.1 718.16 139.404 714.834C145.718 711.509 153.094 710.828 159.91 712.941C166.726 715.053 172.424 719.787 175.75 726.1C177.401 729.225 178.42 732.646 178.747 736.165C179.074 739.685 178.704 743.234 177.657 746.611C176.611 749.987 174.909 753.123 172.648 755.841C170.388 758.558 167.613 760.803 164.484 762.446C160.628 764.497 156.328 765.568 151.962 765.568C147.056 765.569 142.244 764.229 138.045 761.693C133.846 759.157 130.42 755.522 128.138 751.18V751.144ZM100.187 678.344C98.4483 671.422 99.5268 664.092 103.186 657.964C106.846 651.836 112.787 647.41 119.706 645.658C126.628 643.919 133.958 644.997 140.086 648.657C146.214 652.316 150.64 658.257 152.392 665.176C154.13 672.094 153.051 679.419 149.391 685.541C145.731 691.664 139.79 696.083 132.874 697.827C130.717 698.383 128.499 698.661 126.272 698.652C120.288 698.66 114.472 696.67 109.747 692.998C105.022 689.325 101.657 684.181 100.187 678.38V678.344ZM115.867 627.359C112.345 627.065 108.915 626.08 105.773 624.46C102.632 622.841 99.84 620.618 97.5577 617.919C95.2753 615.22 93.5469 612.098 92.4714 608.731C91.3958 605.364 90.9942 601.819 91.2892 598.297C91.5832 594.774 92.5681 591.344 94.1878 588.203C95.8076 585.061 98.0303 582.27 100.729 579.987C103.428 577.705 106.55 575.977 109.917 574.901C113.284 573.826 116.83 573.424 120.352 573.719C127.462 574.322 134.042 577.72 138.649 583.169C143.257 588.617 145.515 595.67 144.929 602.781C144.363 609.504 141.296 615.771 136.333 620.341C131.371 624.912 124.874 627.455 118.127 627.467C117.386 627.491 116.632 627.467 115.867 627.395V627.359Z" fill="#BA2228"/>
<path d="M774.907 1036.63C812.914 1036.63 843.724 1005.82 843.724 967.817C843.724 929.811 812.914 899 774.907 899C736.9 899 706.09 929.811 706.09 967.817C706.09 1005.82 736.9 1036.63 774.907 1036.63Z" fill="#BA2228"/>
<path d="M1184.64 192.818H579.31C466.717 192.818 375.441 284.093 375.441 396.687V396.723C375.441 509.316 466.717 600.591 579.31 600.591H1184.64C1297.23 600.591 1388.51 509.316 1388.51 396.723V396.687C1388.51 284.093 1297.23 192.818 1184.64 192.818Z" fill="#1A1817"/>
<path d="M654.017 270.07C628.428 270.07 603.413 277.658 582.136 291.875C560.859 306.092 544.276 326.299 534.483 349.94C524.691 373.582 522.129 399.596 527.121 424.694C532.113 449.792 544.436 472.845 562.53 490.94C580.625 509.034 603.678 521.357 628.776 526.349C653.874 531.341 679.888 528.779 703.53 518.986C727.171 509.194 747.378 492.61 761.595 471.334C775.811 450.057 783.399 425.042 783.399 399.453C783.404 382.461 780.061 365.634 773.56 349.935C767.06 334.235 757.53 319.97 745.515 307.955C733.499 295.94 719.235 286.41 703.535 279.909C687.836 273.409 671.009 270.066 654.017 270.07ZM654.017 500.526C634.018 500.526 614.468 494.595 597.84 483.483C581.212 472.372 568.253 456.579 560.601 438.101C552.95 419.624 550.949 399.292 554.854 379.678C558.758 360.064 568.391 342.048 582.535 327.909C596.679 313.77 614.698 304.143 634.314 300.246C653.929 296.349 674.26 298.356 692.735 306.014C711.209 313.673 726.998 326.638 738.104 343.27C749.21 359.902 755.133 379.454 755.126 399.453C755.126 412.729 752.511 425.875 747.429 438.14C742.347 450.405 734.899 461.549 725.51 470.935C716.121 480.321 704.974 487.765 692.707 492.842C680.44 497.92 667.293 500.531 654.017 500.526Z" fill="white"/>
<path d="M672.375 414.408C693.241 414.408 710.156 397.493 710.156 376.627C710.156 355.761 693.241 338.846 672.375 338.846C651.509 338.846 634.594 355.761 634.594 376.627C634.594 397.493 651.509 414.408 672.375 414.408Z" fill="white"/>
<path d="M1109.89 270.07C1084.3 270.07 1059.29 277.658 1038.01 291.875C1016.73 306.092 1000.15 326.299 990.358 349.94C980.566 373.582 978.004 399.596 982.996 424.694C987.988 449.792 1000.31 472.845 1018.4 490.94C1036.5 509.034 1059.55 521.357 1084.65 526.349C1109.75 531.341 1135.76 528.779 1159.4 518.986C1183.05 509.194 1203.25 492.61 1217.47 471.334C1231.69 450.057 1239.27 425.042 1239.27 399.453C1239.28 382.461 1235.94 365.634 1229.44 349.935C1222.93 334.235 1213.4 319.97 1201.39 307.955C1189.37 295.94 1175.11 286.41 1159.41 279.909C1143.71 273.409 1126.88 270.066 1109.89 270.07ZM1109.89 500.526C1089.89 500.526 1070.34 494.595 1053.72 483.483C1037.09 472.372 1024.13 456.579 1016.48 438.101C1008.82 419.624 1006.82 399.292 1010.73 379.678C1014.63 360.064 1024.27 342.048 1038.41 327.909C1052.55 313.77 1070.57 304.143 1090.19 300.246C1109.8 296.349 1130.14 298.356 1148.61 306.014C1167.08 313.673 1182.87 326.638 1193.98 343.27C1205.08 359.902 1211.01 379.454 1211 399.453C1211 412.729 1208.39 425.875 1203.3 438.14C1198.22 450.405 1190.77 461.549 1181.38 470.935C1172 480.321 1160.85 487.765 1148.58 492.842C1136.32 497.92 1123.17 500.531 1109.89 500.526Z" fill="white"/>
<path d="M1128.28 414.408C1149.14 414.408 1166.06 397.493 1166.06 376.627C1166.06 355.761 1149.14 338.846 1128.28 338.846C1107.41 338.846 1090.5 355.761 1090.5 376.627C1090.5 397.493 1107.41 414.408 1128.28 414.408Z" fill="white"/>
</g>
<defs>
<clipPath id="clip0_348_12569">
<rect width="1763.95" height="1052.39" fill="white"/>
</clipPath>
</defs>
</svg>
