<svg width="203" height="32" viewBox="0 0 203 32" fill="none" xmlns="http://www.w3.org/2000/svg">
<path d="M7.58349 7.14999V12.581H20.495V18.1145H7.58349V24.4677H21.1098V30.2574H0.871582V1.36033H21.1098V7.14999H7.58349Z" fill="#14213D"/>
<path d="M23.7509 5.34209H30.1188L32.8416 11.3147L36.2671 18.8684L38.7264 13.3788L40.7027 9.03108C40.9369 8.4748 41.2004 7.85997 41.4932 7.18658C41.8152 6.48392 42.0934 5.86909 42.3276 5.34209H48.7394L36.2671 31.8238L23.7509 5.34209Z" fill="#14213D"/>
<path d="M56.7789 10.3486V15.0037H67.8458V19.7467H56.7789V25.1924H68.3728V30.1549H51.0258V5.38601H68.3728V10.3486H56.7789Z" fill="#14213D"/>
<path d="M93.6238 4.94684V31.3846L76.5842 15.8821V29.8036H70.919V3.32193L87.9586 18.9123V4.94684H93.6238Z" fill="#14213D"/>
<path d="M116.544 22.777C116.544 23.9773 116.266 25.0606 115.71 26.0268C115.183 26.9929 114.451 27.8127 113.514 28.4861C112.577 29.1595 111.479 29.6718 110.22 30.0232C108.991 30.4038 107.658 30.5941 106.224 30.5941C105.111 30.5941 104.043 30.4331 103.018 30.111C102.022 29.789 101.086 29.3498 100.207 28.7935C99.3289 28.2372 98.5384 27.5785 97.8357 26.8173C97.133 26.0561 96.5328 25.2363 96.0351 24.3579L101.129 22.0743C101.627 22.9233 102.344 23.6992 103.281 24.4019C104.218 25.0753 105.199 25.4412 106.224 25.4998C106.78 25.4998 107.336 25.4559 107.893 25.368C108.449 25.2509 108.932 25.0753 109.342 24.841C109.781 24.5775 110.132 24.2701 110.396 23.9188C110.659 23.5382 110.791 23.099 110.791 22.6013C110.791 22.2207 110.659 21.8693 110.396 21.5473C110.132 21.2252 109.781 20.9471 109.342 20.7129C108.903 20.4494 108.405 20.2298 107.849 20.0541C107.322 19.8492 106.795 19.6735 106.268 19.5271C105.155 19.2051 104.043 18.8391 102.93 18.4292C101.847 17.99 100.866 17.4777 99.9876 16.8921C99.1386 16.2773 98.4505 15.5893 97.9235 14.8281C97.3965 14.0376 97.133 13.1446 97.133 12.1492C97.133 11.0366 97.3819 9.99724 97.8796 9.03108C98.3773 8.03564 99.0507 7.18658 99.8998 6.48392C100.778 5.75198 101.803 5.18106 102.974 4.77118C104.174 4.36129 105.463 4.15634 106.839 4.15634C108.976 4.15634 110.85 4.68334 112.46 5.73734C114.099 6.76206 115.314 8.06491 116.105 9.64591L111.23 11.7978C110.674 11.0366 110.03 10.4218 109.298 9.95333C108.595 9.4556 107.775 9.20674 106.839 9.20674C105.814 9.23602 104.906 9.48488 104.116 9.95333C103.325 10.4218 102.93 11.0805 102.93 11.9296C102.93 12.2516 103.047 12.5444 103.281 12.8079C103.516 13.0714 103.823 13.3203 104.204 13.5545C104.613 13.7594 105.067 13.9497 105.565 14.1254C106.063 14.2718 106.575 14.4182 107.102 14.5646C108.302 14.9159 109.459 15.3258 110.571 15.7942C111.713 16.2334 112.723 16.775 113.602 17.4191C114.48 18.034 115.183 18.7805 115.71 19.6589C116.266 20.5372 116.544 21.5766 116.544 22.777Z" fill="#14213D"/>
<path d="M133.196 1.71815C134.477 1.71815 135.691 1.95421 136.838 2.42634C137.984 2.89847 138.979 3.53922 139.822 4.34859C140.699 5.15795 141.39 6.11907 141.896 7.23195C142.402 8.31111 142.655 9.47457 142.655 10.7223C142.655 12.0038 142.402 13.201 141.896 14.3139C141.39 15.3931 140.699 16.3542 139.822 17.1973C138.979 18.0404 137.984 18.698 136.838 19.1701C135.691 19.6422 134.477 19.8783 133.196 19.8783H125.658V30.2483H119.082V1.71815H133.196ZM125.658 14.1116H132.589C133.567 14.1116 134.393 13.7912 135.067 13.1504C135.775 12.5097 136.13 11.7003 136.13 10.7223C136.13 9.84553 135.775 9.08675 135.067 8.446C134.393 7.77153 133.567 7.43429 132.589 7.43429H125.658V14.1116Z" fill="#14213D"/>
<path d="M171.397 30.2483H163L152.226 16.8938V30.2483H145.649V1.71815H159.763C161.078 1.71815 162.309 1.95421 163.456 2.42634C164.602 2.89847 165.597 3.53922 166.44 4.34859C167.317 5.15795 167.991 6.11907 168.463 7.23195C168.969 8.31111 169.222 9.47457 169.222 10.7223C169.222 11.7678 169.054 12.7626 168.716 13.7069C168.413 14.6174 167.958 15.4605 167.351 16.2361C166.777 16.9781 166.086 17.6188 165.277 18.1584C164.467 18.698 163.59 19.1195 162.646 19.423L171.397 30.2483ZM152.226 14.1116H159.206C160.184 14.1116 161.011 13.7912 161.685 13.1504C162.393 12.5097 162.747 11.7003 162.747 10.7223C162.747 9.84553 162.393 9.08675 161.685 8.446C161.011 7.77153 160.184 7.43429 159.206 7.43429H152.226V14.1116Z" fill="#14213D"/>
<path d="M203 15.4774C203 17.602 202.578 19.5916 201.735 21.4464C200.926 23.3012 199.796 24.92 198.346 26.3026C196.93 27.6853 195.243 28.7645 193.287 29.5401C191.365 30.3495 189.308 30.7541 187.116 30.7541C184.924 30.7541 182.85 30.3495 180.894 29.5401C178.972 28.7645 177.286 27.6853 175.835 26.3026C174.385 24.92 173.239 23.3012 172.396 21.4464C171.586 19.5916 171.182 17.602 171.182 15.4774C171.182 13.3865 171.586 11.4137 172.396 9.55888C173.239 7.70408 174.385 6.10221 175.835 4.75327C177.286 3.3706 178.972 2.29145 180.894 1.51581C182.85 0.70644 184.924 0.301758 187.116 0.301758C189.308 0.301758 191.365 0.70644 193.287 1.51581C195.243 2.29145 196.93 3.3706 198.346 4.75327C199.796 6.10221 200.926 7.70408 201.735 9.55888C202.578 11.4137 203 13.3865 203 15.4774ZM196.474 15.4774C196.474 14.2296 196.221 13.0661 195.716 11.987C195.243 10.9078 194.586 9.98042 193.743 9.20478C192.9 8.39542 191.905 7.77153 190.758 7.33312C189.645 6.86099 188.431 6.62493 187.116 6.62493C185.801 6.62493 184.57 6.86099 183.423 7.33312C182.277 7.77153 181.265 8.39542 180.388 9.20478C179.545 9.98042 178.871 10.9078 178.365 11.987C177.893 13.0661 177.657 14.2296 177.657 15.4774C177.657 16.7251 177.893 17.8886 178.365 18.9678C178.871 20.0469 179.545 20.9912 180.388 21.8005C181.265 22.6099 182.277 23.2507 183.423 23.7228C184.57 24.1949 185.801 24.431 187.116 24.431C188.431 24.431 189.645 24.1949 190.758 23.7228C191.905 23.2507 192.9 22.6099 193.743 21.8005C194.586 20.9912 195.243 20.0469 195.716 18.9678C196.221 17.8886 196.474 16.7251 196.474 15.4774Z" fill="#14213D"/>
</svg>
