<svg width="250" height="45" viewBox="0 0 250 45" fill="none" xmlns="http://www.w3.org/2000/svg">
<path d="M54.5835 13.15V18.581H67.495V24.1145H54.5835V30.4677H68.1098V36.2574H47.8716V7.36033H68.1098V13.15H54.5835Z" fill="#14213D"/>
<path d="M70.7509 11.3421H77.1188L79.8416 17.3147L83.2671 24.8684L85.7264 19.3788L87.7027 15.0311C87.9369 14.4748 88.2004 13.86 88.4932 13.1866C88.8152 12.4839 89.0934 11.8691 89.3276 11.3421H95.7394L83.2671 37.8238L70.7509 11.3421Z" fill="#14213D"/>
<path d="M103.779 16.3486V21.0037H114.846V25.7467H103.779V31.1924H115.373V36.1549H98.0258V11.386H115.373V16.3486H103.779Z" fill="#14213D"/>
<path d="M140.624 10.9468V37.3846L123.584 21.8821V35.8036H117.919V9.32193L134.959 24.9123V10.9468H140.624Z" fill="#14213D"/>
<path d="M163.544 28.777C163.544 29.9773 163.266 31.0606 162.71 32.0268C162.183 32.9929 161.451 33.8127 160.514 34.4861C159.577 35.1595 158.479 35.6718 157.22 36.0232C155.991 36.4038 154.658 36.5941 153.224 36.5941C152.111 36.5941 151.043 36.4331 150.018 36.111C149.022 35.789 148.086 35.3498 147.207 34.7935C146.329 34.2372 145.538 33.5785 144.836 32.8173C144.133 32.0561 143.533 31.2363 143.035 30.3579L148.129 28.0743C148.627 28.9233 149.344 29.6992 150.281 30.4019C151.218 31.0753 152.199 31.4412 153.224 31.4998C153.78 31.4998 154.336 31.4559 154.893 31.368C155.449 31.2509 155.932 31.0753 156.342 30.841C156.781 30.5775 157.132 30.2701 157.396 29.9188C157.659 29.5382 157.791 29.099 157.791 28.6013C157.791 28.2207 157.659 27.8693 157.396 27.5473C157.132 27.2252 156.781 26.9471 156.342 26.7129C155.903 26.4494 155.405 26.2298 154.849 26.0541C154.322 25.8492 153.795 25.6735 153.268 25.5271C152.155 25.2051 151.043 24.8391 149.93 24.4292C148.847 23.99 147.866 23.4777 146.988 22.8921C146.139 22.2773 145.451 21.5893 144.924 20.8281C144.397 20.0376 144.133 19.1446 144.133 18.1492C144.133 17.0366 144.382 15.9972 144.88 15.0311C145.377 14.0356 146.051 13.1866 146.9 12.4839C147.778 11.752 148.803 11.1811 149.974 10.7712C151.174 10.3613 152.463 10.1563 153.839 10.1563C155.976 10.1563 157.85 10.6833 159.46 11.7373C161.099 12.7621 162.314 14.0649 163.105 15.6459L158.23 17.7978C157.674 17.0366 157.03 16.4218 156.298 15.9533C155.595 15.4556 154.775 15.2067 153.839 15.2067C152.814 15.236 151.906 15.4849 151.116 15.9533C150.325 16.4218 149.93 17.0805 149.93 17.9296C149.93 18.2516 150.047 18.5444 150.281 18.8079C150.516 19.0714 150.823 19.3203 151.204 19.5545C151.613 19.7594 152.067 19.9497 152.565 20.1254C153.063 20.2718 153.575 20.4182 154.102 20.5646C155.302 20.9159 156.459 21.3258 157.571 21.7942C158.713 22.2334 159.723 22.775 160.602 23.4191C161.48 24.034 162.183 24.7805 162.71 25.6589C163.266 26.5372 163.544 27.5766 163.544 28.777Z" fill="#14213D"/>
<path d="M180.196 7.71815C181.477 7.71815 182.691 7.95421 183.838 8.42634C184.984 8.89847 185.979 9.53922 186.822 10.3486C187.699 11.158 188.39 12.1191 188.896 13.232C189.402 14.3111 189.655 15.4746 189.655 16.7223C189.655 18.0038 189.402 19.201 188.896 20.3139C188.39 21.3931 187.699 22.3542 186.822 23.1973C185.979 24.0404 184.984 24.698 183.838 25.1701C182.691 25.6422 181.477 25.8783 180.196 25.8783H172.658V36.2483H166.082V7.71815H180.196ZM172.658 20.1116H179.589C180.567 20.1116 181.393 19.7912 182.067 19.1504C182.775 18.5097 183.13 17.7003 183.13 16.7223C183.13 15.8455 182.775 15.0867 182.067 14.446C181.393 13.7715 180.567 13.4343 179.589 13.4343H172.658V20.1116Z" fill="#14213D"/>
<path d="M218.397 36.2483H210L199.226 22.8938V36.2483H192.649V7.71815H206.763C208.078 7.71815 209.309 7.95421 210.456 8.42634C211.602 8.89847 212.597 9.53922 213.44 10.3486C214.317 11.158 214.991 12.1191 215.463 13.232C215.969 14.3111 216.222 15.4746 216.222 16.7223C216.222 17.7678 216.054 18.7626 215.716 19.7069C215.413 20.6174 214.958 21.4605 214.351 22.2361C213.777 22.9781 213.086 23.6188 212.277 24.1584C211.467 24.698 210.59 25.1195 209.646 25.423L218.397 36.2483ZM199.226 20.1116H206.206C207.184 20.1116 208.011 19.7912 208.685 19.1504C209.393 18.5097 209.747 17.7003 209.747 16.7223C209.747 15.8455 209.393 15.0867 208.685 14.446C208.011 13.7715 207.184 13.4343 206.206 13.4343H199.226V20.1116Z" fill="#14213D"/>
<path d="M250 21.4774C250 23.602 249.578 25.5916 248.735 27.4464C247.926 29.3012 246.796 30.92 245.346 32.3026C243.93 33.6853 242.243 34.7645 240.287 35.5401C238.365 36.3495 236.308 36.7541 234.116 36.7541C231.924 36.7541 229.85 36.3495 227.894 35.5401C225.972 34.7645 224.286 33.6853 222.835 32.3026C221.385 30.92 220.239 29.3012 219.396 27.4464C218.586 25.5916 218.182 23.602 218.182 21.4774C218.182 19.3865 218.586 17.4137 219.396 15.5589C220.239 13.7041 221.385 12.1022 222.835 10.7533C224.286 9.3706 225.972 8.29145 227.894 7.51581C229.85 6.70644 231.924 6.30176 234.116 6.30176C236.308 6.30176 238.365 6.70644 240.287 7.51581C242.243 8.29145 243.93 9.3706 245.346 10.7533C246.796 12.1022 247.926 13.7041 248.735 15.5589C249.578 17.4137 250 19.3865 250 21.4774ZM243.474 21.4774C243.474 20.2296 243.221 19.0661 242.716 17.987C242.243 16.9078 241.586 15.9804 240.743 15.2048C239.9 14.3954 238.905 13.7715 237.758 13.3331C236.645 12.861 235.431 12.6249 234.116 12.6249C232.801 12.6249 231.57 12.861 230.423 13.3331C229.277 13.7715 228.265 14.3954 227.388 15.2048C226.545 15.9804 225.871 16.9078 225.365 17.987C224.893 19.0661 224.657 20.2296 224.657 21.4774C224.657 22.7251 224.893 23.8886 225.365 24.9678C225.871 26.0469 226.545 26.9912 227.388 27.8005C228.265 28.6099 229.277 29.2507 230.423 29.7228C231.57 30.1949 232.801 30.431 234.116 30.431C235.431 30.431 236.645 30.1949 237.758 29.7228C238.905 29.2507 239.9 28.6099 240.743 27.8005C241.586 26.9912 242.243 26.0469 242.716 24.9678C243.221 23.8886 243.474 22.7251 243.474 21.4774Z" fill="#14213D"/>
<path d="M0.538898 18.2727C3.19238 6.1213 14.968 1.30029 14.968 1.30029C5.88823 8.64086 6.11086 17.2907 6.37531 19.3983C6.64088 21.5059 7.76872 22.8621 10.8861 23.439C14.0035 24.0159 23.0466 21.8455 26.5403 20.7177C30.034 19.5904 30.3657 18.6394 30.3657 18.6394L30.4544 8.46852C30.4544 8.46852 33.196 3.71475 33.6605 3.95773C34.1249 4.20126 37.9057 6.63324 37.8396 11.1661C37.7735 15.6989 34.0588 19.4356 31.1624 22.1552C28.3202 24.8238 20.0276 28.4075 16.4798 29.9407C16.4121 29.97 16.346 29.9986 16.2818 30.0263C12.8547 31.5079 13.8498 35.0897 13.8498 35.0897C13.8498 35.0897 14.5572 39.9096 21.0581 41.7669C28.1721 43.7994 37.5051 33.4833 37.5051 33.4833C37.5051 33.4833 36.6236 38.4716 29.8136 42.1732C23.0036 45.8749 14.3363 43.6017 10.0024 41.2991C5.66843 38.9965 -2.11458 30.4241 0.538898 18.2727Z" fill="#14213D"/>
<path d="M6.38828 16.0557C6.38828 16.0557 7.58506 9.83674 16.223 8.245C24.8609 6.65325 29.1485 11.4471 29.9034 13.878C30.6109 16.1551 30.3148 17.1773 29.548 19.4183C31.6116 18.7402 35.4048 15.4002 36.3523 13.4655C37.3293 11.4692 37.9175 9.69265 37.0033 7.56976C36.0896 5.44687 32.5258 1.31691 25.3028 0.255181C18.0797 -0.806549 14.0119 1.78816 14.0119 1.78816C14.0119 1.78816 6.18204 7.00471 6.38828 16.0557Z" fill="#FCA311"/>
<path d="M21.1782 41.8108C21.1782 41.8108 24.9516 42.1351 28.0475 39.6879C31.1429 37.2412 32.5877 33.4672 32.4696 29.6938C32.3515 25.9204 35.3881 24.4756 38.6016 23.68C41.815 22.8838 41.7856 25.5373 41.3726 27.1884C40.9601 28.8395 40.2526 35.0821 31.7328 41.0078C27.7825 42.8058 22.7406 42.3707 21.1782 41.8108Z" fill="#FCA311"/>
<path d="M12.848 20.5622C14.9891 20.5622 16.7248 18.8265 16.7248 16.6854C16.7248 14.5443 14.9891 12.8086 12.848 12.8086C10.7069 12.8086 8.97119 14.5443 8.97119 16.6854C8.97119 18.8265 10.7069 20.5622 12.848 20.5622Z" fill="#FCA311"/>
</svg>
