<svg width="42" height="45" viewBox="0 0 42 45" fill="none" xmlns="http://www.w3.org/2000/svg">
<path d="M0.538898 18.2727C3.19238 6.1213 14.968 1.30029 14.968 1.30029C5.88823 8.64086 6.11086 17.2907 6.37531 19.3983C6.64088 21.5059 7.76872 22.8621 10.8861 23.439C14.0035 24.0159 23.0466 21.8455 26.5403 20.7177C30.034 19.5904 30.3657 18.6394 30.3657 18.6394L30.4544 8.46852C30.4544 8.46852 33.196 3.71475 33.6605 3.95773C34.1249 4.20126 37.9057 6.63324 37.8396 11.1661C37.7735 15.6989 34.0588 19.4356 31.1624 22.1552C28.3202 24.8238 20.0276 28.4075 16.4798 29.9407C16.4121 29.97 16.346 29.9986 16.2818 30.0263C12.8547 31.5079 13.8498 35.0897 13.8498 35.0897C13.8498 35.0897 14.5572 39.9096 21.0581 41.7669C28.1721 43.7994 37.5051 33.4833 37.5051 33.4833C37.5051 33.4833 36.6236 38.4716 29.8136 42.1732C23.0036 45.8749 14.3363 43.6017 10.0024 41.2991C5.66843 38.9965 -2.11458 30.4241 0.538898 18.2727Z" fill="white"/>
<path d="M6.38828 16.0557C6.38828 16.0557 7.58506 9.83674 16.223 8.245C24.8609 6.65325 29.1485 11.4471 29.9034 13.878C30.6109 16.1551 30.3148 17.1773 29.548 19.4183C31.6116 18.7402 35.4048 15.4002 36.3523 13.4655C37.3293 11.4692 37.9175 9.69265 37.0033 7.56976C36.0896 5.44687 32.5258 1.31691 25.3028 0.255181C18.0797 -0.806549 14.0119 1.78816 14.0119 1.78816C14.0119 1.78816 6.18204 7.00471 6.38828 16.0557Z" fill="#FCA311"/>
<path d="M21.1782 41.8108C21.1782 41.8108 24.9516 42.1351 28.0475 39.6879C31.1429 37.2412 32.5877 33.4672 32.4696 29.6938C32.3515 25.9204 35.3881 24.4756 38.6016 23.68C41.815 22.8838 41.7856 25.5373 41.3726 27.1884C40.9601 28.8395 40.2526 35.0821 31.7328 41.0078C27.7825 42.8058 22.7406 42.3707 21.1782 41.8108Z" fill="#FCA311"/>
<path d="M12.848 20.5622C14.9891 20.5622 16.7248 18.8265 16.7248 16.6854C16.7248 14.5443 14.9891 12.8086 12.848 12.8086C10.7069 12.8086 8.97119 14.5443 8.97119 16.6854C8.97119 18.8265 10.7069 20.5622 12.848 20.5622Z" fill="#FCA311"/>
</svg>
